<?xml version="1.0" standalone="no"?>
<!DOCTYPE svg PUBLIC "-//W3C//DTD SVG 20010904//EN"
 "http://www.w3.org/TR/2001/REC-SVG-20010904/DTD/svg10.dtd">
<svg version="1.0" xmlns="http://www.w3.org/2000/svg"
 width="438.000000pt" height="424.000000pt" viewBox="0 0 438.000000 424.000000"
 preserveAspectRatio="xMidYMid meet">
<metadata>
Created by potrace 1.16, written by Peter Selinger 2001-2019
</metadata>
<g transform="translate(0.000000,424.000000) scale(0.100000,-0.100000)"
fill="#000000" stroke="none">
<path d="M1740 4221 c-243 -58 -406 -122 -608 -238 -562 -324 -942 -896 -1028
-1546 -24 -185 -15 -500 19 -667 72 -345 187 -603 393 -877 289 -384 716 -663
1184 -772 626 -147 1267 -8 1785 388 90 68 268 245 345 341 227 285 369 606
437 985 28 157 25 530 -5 690 -158 835 -734 1458 -1552 1678 l-115 31 -390 3
c-345 1 -399 0 -465 -16z m588 -51 c506 -39 952 -245 1298 -601 297 -306 477
-664 551 -1094 26 -155 24 -482 -5 -641 -120 -663 -522 -1195 -1117 -1480
-287 -137 -541 -194 -865 -195 -188 0 -340 18 -504 61 -358 92 -673 276 -931
541 -172 177 -274 321 -375 531 -135 279 -200 564 -200 870 0 287 55 549 168
808 316 721 1004 1181 1807 1209 22 0 100 -4 173 -9z"/>
<path d="M1957 4012 c-10 -11 -17 -35 -17 -60 0 -32 6 -45 26 -61 15 -12 34
-21 44 -21 10 0 29 9 44 21 33 26 37 88 6 119 -26 26 -81 26 -103 2z"/>
<path d="M2555 3941 c-9 -28 -25 -57 -34 -63 -20 -14 -37 -68 -22 -68 5 0 12
8 16 19 5 17 10 17 58 6 43 -10 52 -15 51 -33 0 -12 3 -22 8 -22 11 0 21 46
13 60 -3 5 -1 35 5 66 7 31 8 60 3 64 -4 5 -24 11 -44 15 l-37 7 -17 -51z"/>
<path d="M1415 3875 c-14 -13 -25 -34 -25 -45 0 -29 26 -76 45 -84 85 -32 141
60 76 125 -36 35 -64 37 -96 4z"/>
<path d="M3171 3658 l-43 -62 24 -17 c64 -49 103 -48 103 2 0 14 8 28 19 34
30 16 30 32 -1 61 -53 49 -56 48 -102 -18z"/>
<path d="M1920 3650 c-398 -72 -753 -303 -975 -636 -71 -105 -158 -287 -189
-395 -39 -137 -40 -174 -2 -59 150 447 504 794 956 938 184 58 245 67 475 67
178 -1 225 -4 312 -23 292 -63 564 -211 768 -418 124 -125 247 -307 302 -448
15 -38 29 -64 31 -58 6 19 -67 192 -124 293 -207 371 -548 625 -974 726 -148
35 -426 42 -580 13z"/>
<path d="M711 3338 c-17 -18 -31 -36 -31 -39 0 -3 27 -27 59 -53 l59 -46 31
39 c17 21 31 45 31 53 0 21 -21 38 -46 38 -13 0 -24 8 -27 20 -8 30 -42 24
-76 -12z"/>
<path d="M2036 2840 c-176 -132 -204 -150 -238 -150 -27 0 -41 6 -50 20 -12
18 -24 20 -133 20 l-120 0 -225 -225 c-124 -124 -220 -225 -213 -225 6 0 96
61 200 136 103 75 194 138 202 141 17 7 30 -14 24 -37 -3 -10 -36 -39 -74 -64
l-69 -46 0 -50 c0 -39 -4 -52 -20 -60 -16 -9 -20 -21 -20 -68 0 -87 5 -89 98
-30 l82 51 0 78 0 78 59 41 c33 22 62 44 66 49 3 5 -4 30 -16 54 -29 60 -21
77 34 77 40 0 56 -9 172 -95 71 -52 132 -92 136 -90 4 3 -1 33 -12 67 -10 34
-16 65 -13 70 3 5 86 63 185 128 151 101 184 120 216 120 35 -1 56 -16 248
-186 116 -102 220 -192 232 -201 30 -20 181 -54 189 -41 3 5 1 14 -5 21 -17
21 -71 135 -71 150 0 15 20 27 47 27 8 0 82 -61 164 -135 136 -123 177 -153
167 -125 -2 6 -61 84 -132 175 l-128 165 -88 0 c-60 0 -104 -6 -144 -20 l-57
-19 -178 174 -178 175 -69 0 -69 -1 -199 -149z"/>
<path d="M2187 2697 l-79 -62 7 -75 c13 -156 1 -138 156 -245 77 -53 144 -93
149 -90 6 3 10 52 10 107 l0 101 -60 68 c-59 66 -60 68 -65 140 -8 98 -13 119
-28 119 -6 -1 -47 -29 -90 -63z"/>
<path d="M380 2670 c-20 -20 -26 -54 -14 -85 8 -19 55 -45 84 -45 29 0 70 44
70 75 0 63 -95 100 -140 55z"/>
<path d="M2434 1986 c-97 -43 -119 -183 -40 -262 75 -75 207 -45 236 54 l9 32
-44 0 c-35 0 -46 -5 -59 -25 -35 -53 -96 -17 -96 55 0 20 7 46 16 58 19 28 60
29 76 2 18 -28 98 -29 98 -1 0 27 -39 71 -76 87 -41 17 -80 17 -120 0z"/>
<path d="M1180 1840 l0 -150 40 0 39 0 3 103 3 102 26 -100 25 -100 37 -3 c35
-3 36 -2 47 40 6 24 19 70 29 103 l18 60 -5 -102 -5 -103 47 0 46 0 0 150 0
151 -67 -3 -67 -3 -21 -90 -21 -90 -13 55 c-6 30 -16 72 -22 93 l-10 37 -64 0
-65 0 0 -150z"/>
<path d="M1580 1840 l0 -150 131 0 130 0 -3 38 -3 37 -82 3 c-75 3 -83 5 -83
22 0 18 7 20 75 20 l75 0 0 35 0 35 -75 0 c-68 0 -75 2 -75 20 0 18 7 20 80
20 l80 0 0 35 0 35 -125 0 -125 0 0 -150z"/>
<path d="M1880 1840 l0 -150 93 0 c108 0 150 16 179 70 25 45 20 129 -9 168
-34 46 -78 62 -175 62 l-88 0 0 -150z"/>
<path d="M2210 1840 l0 -150 45 0 45 0 0 150 0 150 -45 0 -45 0 0 -150z"/>
<path d="M2705 1853 c-27 -76 -51 -143 -53 -150 -2 -9 10 -13 42 -13 36 0 46
4 51 20 5 17 15 20 57 20 41 0 51 -3 55 -20 4 -17 14 -20 54 -20 l48 0 -30 83
c-17 45 -39 105 -49 132 -32 89 -28 85 -79 85 l-46 0 -50 -137z"/>
<path d="M2980 1840 l0 -150 115 0 115 0 0 40 0 40 -65 0 -65 0 0 110 0 110
-50 0 -50 0 0 -150z"/>
<path d="M656 1480 c-60 -18 -98 -77 -98 -150 0 -110 90 -182 192 -151 45 13
90 62 90 97 0 21 -4 24 -39 24 -30 0 -42 -5 -55 -25 -35 -53 -96 -17 -96 55 0
20 7 46 16 58 19 28 60 29 76 2 18 -29 98 -29 98 -1 0 30 -48 79 -88 91 -43
11 -56 11 -96 0z"/>
<path d="M960 1473 c-53 -28 -80 -75 -80 -143 0 -68 27 -115 80 -143 44 -23
120 -18 158 10 82 60 82 206 0 266 -38 28 -114 33 -158 10z m114 -85 c37 -52
9 -138 -43 -138 -36 0 -51 18 -58 69 -7 54 16 91 57 91 19 0 34 -8 44 -22z"/>
<path d="M2266 1480 c-66 -21 -113 -102 -101 -176 11 -73 77 -134 145 -134 68
0 140 55 140 106 0 22 -4 24 -43 24 -34 0 -44 -4 -52 -22 -13 -29 -51 -35 -76
-12 -26 23 -27 104 -1 127 25 23 59 21 74 -3 10 -15 24 -20 55 -20 47 0 50 7
29 49 -28 53 -106 81 -170 61z"/>
<path d="M2990 1472 c-41 -22 -80 -90 -80 -141 0 -58 35 -117 84 -140 23 -12
55 -21 71 -21 44 0 108 36 130 72 26 44 26 131 1 175 -40 66 -136 92 -206 55z
m120 -81 c5 -11 10 -38 10 -61 0 -60 -14 -80 -55 -80 -40 0 -58 24 -58 80 0
56 18 80 58 80 24 0 38 -6 45 -19z"/>
<path d="M3643 1479 c-39 -11 -63 -43 -63 -84 0 -46 18 -63 90 -89 71 -26 89
-51 44 -62 -21 -5 -31 -2 -45 14 -12 16 -28 22 -58 22 -37 0 -41 -3 -41 -24 0
-31 49 -73 95 -82 106 -20 191 56 159 141 -8 19 -50 42 -115 61 -51 15 -62 29
-30 39 21 6 51 -3 51 -16 0 -5 20 -9 45 -9 37 0 45 3 45 19 0 26 -45 67 -81
75 -39 8 -55 7 -96 -5z"/>
<path d="M1220 1330 l0 -150 45 0 45 0 0 83 1 82 47 -82 47 -83 48 0 47 0 0
150 0 150 -45 0 -45 0 0 -82 -1 -83 -47 82 -47 83 -47 0 -48 0 0 -150z"/>
<path d="M1550 1330 l0 -150 40 0 39 0 3 83 3 82 45 -80 45 -80 48 -3 47 -3 0
150 0 151 -45 0 -45 0 0 -82 0 -83 -47 83 -46 82 -44 0 -43 0 0 -150z"/>
<path d="M1870 1330 l0 -150 130 0 130 0 0 35 0 34 -82 3 c-77 3 -83 5 -86 26
-3 21 0 22 72 22 l76 0 0 35 0 35 -75 0 c-68 0 -75 2 -75 20 0 18 7 20 80 20
l80 0 0 35 0 35 -125 0 -125 0 0 -150z"/>
<path d="M2480 1440 l0 -40 40 0 40 0 0 -110 0 -110 50 0 50 0 0 110 0 110 40
0 40 0 0 40 0 40 -130 0 -130 0 0 -40z"/>
<path d="M2780 1330 l0 -150 45 0 45 0 0 150 0 150 -45 0 -45 0 0 -150z"/>
<path d="M3260 1330 l0 -150 45 0 45 0 0 77 0 78 45 -78 45 -77 45 0 45 0 0
150 0 150 -45 0 -44 0 -3 -76 -3 -76 -43 76 -43 76 -45 0 -44 0 0 -150z"/>
<path d="M2873 660 c-28 -17 -33 -25 -33 -59 0 -72 70 -95 120 -41 31 33 41
28 42 -20 1 -43 -19 -62 -64 -59 -46 4 -52 -15 -5 -19 51 -5 87 29 87 80 0 62
-55 138 -100 138 -8 0 -30 -9 -47 -20z"/>
<path d="M2703 590 c-54 -22 -65 -93 -20 -125 32 -22 55 -18 87 14 34 34 40
31 40 -19 0 -56 -29 -72 -95 -55 -27 8 -29 7 -16 -8 19 -23 73 -21 105 4 33
26 35 82 6 139 -28 56 -58 69 -107 50z"/>
<path d="M2491 521 c-21 -21 -28 -66 -13 -87 25 -38 91 -39 117 -1 14 19 14
19 21 -8 14 -58 -50 -109 -92 -74 -8 6 -18 9 -22 5 -9 -10 27 -36 50 -36 27 0
75 26 82 45 12 32 6 82 -16 125 -21 41 -26 45 -65 48 -32 2 -47 -2 -62 -17z"/>
</g>
</svg>
