<?xml version="1.0" encoding="utf-8"?>
<!-- Generator: Adobe Illustrator 16.0.0, SVG Export Plug-In . SVG Version: 6.00 Build 0)  -->
<!DOCTYPE svg PUBLIC "-//W3C//DTD SVG 1.1//EN" "http://www.w3.org/Graphics/SVG/1.1/DTD/svg11.dtd">
<svg version="1.1" id="Слой_1" xmlns="http://www.w3.org/2000/svg" xmlns:xlink="http://www.w3.org/1999/xlink" x="0px" y="0px"
	 width="250px" height="250px" viewBox="0 0 250 250" enable-background="new 0 0 250 250" xml:space="preserve">
<path id="leg" fill-rule="evenodd" clip-rule="evenodd" fill="#E3CDB6" d="M158.377,40.184c-1.441,0.994-2.441,1.685-3.762,2.597
	c0.673,1.6,1.304,3.2,2.01,4.765c8.242,18.246,10.156,37.416,9.716,57.263c-0.34,15.387,0.994,30.833,2.136,46.209
	c0.204,2.738,2.805,5.535,4.813,7.857c5.031,5.816,7.255,12.379,6.406,20.007c-0.52,4.674-3.248,7.735-7.254,9.761
	c-8.095,4.086-16.642,5.523-25.446,3.094c-7.105-1.96-13.732-1.205-20.331,1.763c-6.478,2.916-13.019,5.689-19.554,8.472
	c-1.627,0.695-3.37,1.768-5.007,1.682c-9.136-0.474-18.507-0.183-27.304-2.254c-7.298-1.717-8.302-10.619-2.549-15.738
	c2.177-1.935,4.965-3.729,7.748-4.34c9.387-2.064,16.673-7.52,23.354-13.844c7.644-7.232,14.959-14.822,22.209-22.452
	c1.031-1.083,1.603-3.469,1.196-4.916c-8.633-30.627-17.425-61.21-26.232-91.788c-0.715-2.482-1.899-4.828-2.628-7.307
	c-1.651-5.609-1.228-6.174,4.903-7.343c6.517,22.647,13.053,45.293,19.547,67.952c3.765,13.133,7.567,26.26,11.073,39.462
	c0.458,1.729-0.076,4.561-1.275,5.762c-10.7,10.729-21.344,21.555-32.691,31.573c-4.217,3.725-10.249,5.398-15.469,7.979
	c-2.314,1.142-4.901,1.887-6.946,3.382c-3.385,2.478-2.914,5.036,1.047,6.571c1.346,0.521,2.928,0.461,4.409,0.6
	c4.2,0.395,8.398,0.894,12.61,1.072c2.103,0.089,4.404,0.004,6.319-0.753c7.493-2.96,14.93-6.089,22.272-9.41
	c8.444-3.819,17.034-4.522,25.924-2.008c6.521,1.843,12.729,0.512,18.745-2.049c6.88-2.928,6.126-9.477,2.636-17.39
	c-0.43-0.977-1.15-1.913-1.949-2.626c-6.271-5.59-7.554-12.984-7.709-20.826c-0.324-16.378-0.676-32.757-1.016-49.136
	c-0.345-16.63-3.87-32.481-11.423-47.385c-1.063-2.101-3.37-4.154-0.328-6.824c2.723-2.394,5.158-2.714,8.006-0.589
	C157.002,39.34,157.461,39.597,158.377,40.184z"/>
<circle id="curcle" fill-rule="evenodd" clip-rule="evenodd" fill="none" stroke="#00C3D2" stroke-width="8" stroke-miterlimit="10" cx="125" cy="124.789" r="119.649"/>
<path id="item7" fill-rule="evenodd" clip-rule="evenodd" fill="#00C3D2" d="M157.041,135.853c-0.793,2.308-2.233,4.489-2.057,6.529
	c0.189,2.169,1.912,4.205,2.416,6.839c-0.967-0.745-1.92-1.508-2.906-2.227c-0.952-0.692-1.938-1.338-3.487-2.402
	c-0.127,2.828-0.233,5.202-0.395,8.77c-1.832-3.088-3.079-5.185-4.905-8.261c-1.576,2.403-2.938,4.482-4.302,6.56
	c-0.494-0.396-0.988-0.791-1.481-1.186c1.038-2.111,2.077-4.222,3.29-6.688c-2.025,0-3.763,0-5.498,0
	c6.037-3.17,4.671-7.48,1.613-12.121c0.371-0.109,0.741-0.22,1.111-0.33c1.603,2.034,3.205,4.07,4.981,6.325
	c2.535-2.819,4.53-5.039,7.227-8.039c-0.449,3.131-0.74,5.157-1.072,7.483C153.675,136.624,155.409,136.226,157.041,135.853z"/>
<path id="item6" fill-rule="evenodd" clip-rule="evenodd" fill="#00C3D2" d="M194.961,131.979c0,3.382,0,6.14,0,9.191
	c-6.354-1.09-12.457-2.136-18.559-3.182c0.014-0.216,0.027-0.43,0.041-0.646C182.426,135.609,188.409,133.877,194.961,131.979z"/>
<path id="item5" fill-rule="evenodd" clip-rule="evenodd" fill="#00C3D2" d="M114.231,135.987
	c-6.434,0.576-12.869,1.15-19.428,1.738c-0.227-1.813-0.436-3.479-0.711-5.681c6.97,1.025,13.591,2.003,20.212,2.979
	C114.279,135.345,114.255,135.666,114.231,135.987z"/>
<path id="item4" fill-rule="evenodd" clip-rule="evenodd" fill="#00C3D2" d="M192.419,123.101
	c-4.789,2.281-9.418,4.487-14.049,6.693c-0.159-0.211-0.318-0.422-0.479-0.633c3.837-3.426,7.676-6.851,11.777-10.512
	C190.66,120.254,191.517,121.641,192.419,123.101z"/>
<path id="item3" fill-rule="evenodd" clip-rule="evenodd" fill="#00C3D2" d="M106.292,121.034c3.683,2.865,7.1,5.521,10.517,8.179
	c-0.118,0.227-0.236,0.455-0.354,0.684c-3.982-1.492-7.965-2.982-12.621-4.727C104.707,123.703,105.417,122.505,106.292,121.034z"/>
<path id="item2" fill-rule="evenodd" clip-rule="evenodd" fill="#00C3D2" d="M179.831,145.676c3.711,1.957,7.425,3.913,11.48,6.051
	c-0.723,1.095-1.386,2.098-2.21,3.345c-3.463-3.061-6.686-5.909-9.908-8.757C179.406,146.102,179.618,145.889,179.831,145.676z"/>
<path id="item1" fill-rule="evenodd" clip-rule="evenodd" fill="#00C3D2" d="M111.977,142.257c-2.208,1.66-4.417,3.32-6.902,5.188
	c-0.712-0.98-1.358-1.87-2.327-3.204c3.267-1.029,6.104-1.923,8.94-2.815C111.784,141.702,111.881,141.979,111.977,142.257z"/>
</svg>
