<?xml version="1.0" encoding="utf-8"?>
<!-- Generator: Adobe Illustrator 17.0.0, SVG Export Plug-In . SVG Version: 6.00 Build 0)  -->
<!DOCTYPE svg PUBLIC "-//W3C//DTD SVG 1.1//EN" "http://www.w3.org/Graphics/SVG/1.1/DTD/svg11.dtd">
<svg version="1.1" id="Слой_1" xmlns="http://www.w3.org/2000/svg" xmlns:xlink="http://www.w3.org/1999/xlink" x="0px" y="0px"
	 width="250px" height="250px" viewBox="0 0 250 250" enable-background="new 0 0 250 250" xml:space="preserve">
<path id="leg" display="none" fill="#E3CDB6" d="M158.377,40.184c-1.441,0.994-2.441,1.685-3.762,2.597
	c0.673,1.6,1.304,3.2,2.01,4.765c8.242,18.246,10.156,37.416,9.716,57.263c-0.34,15.387,0.994,30.833,2.136,46.209
	c0.204,2.738,2.805,5.535,4.813,7.857c5.031,5.816,7.255,12.379,6.406,20.007c-0.52,4.674-3.248,7.735-7.254,9.761
	c-8.095,4.086-16.642,5.523-25.446,3.094c-7.105-1.96-13.732-1.205-20.331,1.763c-6.478,2.916-13.019,5.689-19.554,8.472
	c-1.627,0.695-3.37,1.768-5.007,1.682c-9.136-0.474-18.507-0.183-27.304-2.254c-7.298-1.717-8.302-10.619-2.549-15.738
	c2.177-1.935,4.965-3.729,7.748-4.34c9.387-2.064,16.673-7.52,23.354-13.844c7.644-7.232,14.959-14.822,22.209-22.452
	c1.031-1.083,1.603-3.469,1.196-4.916c-8.633-30.627-17.425-61.21-26.232-91.788c-0.715-2.482-1.899-4.828-2.628-7.307
	c-1.651-5.609-1.228-6.174,4.903-7.343c6.517,22.647,13.053,45.293,19.547,67.952c3.765,13.133,7.567,26.26,11.073,39.462
	c0.458,1.729-0.076,4.561-1.275,5.762c-10.7,10.729-21.344,21.555-32.691,31.573c-4.217,3.725-10.249,5.398-15.469,7.979
	c-2.314,1.142-4.901,1.887-6.946,3.382c-3.385,2.478-2.914,5.036,1.047,6.571c1.346,0.521,2.928,0.461,4.409,0.6
	c4.2,0.395,8.398,0.894,12.61,1.072c2.103,0.089,4.404,0.004,6.319-0.753c7.493-2.96,14.93-6.089,22.272-9.41
	c8.444-3.819,17.034-4.522,25.924-2.008c6.521,1.843,12.729,0.512,18.745-2.049c6.88-2.928,6.126-9.477,2.636-17.39
	c-0.43-0.977-1.15-1.913-1.949-2.626c-6.271-5.59-7.554-12.984-7.709-20.826c-0.324-16.378-0.676-32.757-1.016-49.136
	c-0.345-16.63-3.87-32.481-11.423-47.385c-1.063-2.101-3.37-4.154-0.328-6.824c2.723-2.394,5.158-2.714,8.006-0.589
	C157.002,39.34,157.461,39.597,158.377,40.184z"/>
<circle id="curcle" fill="none" stroke="#00C3D2" stroke-width="8" stroke-miterlimit="10" cx="125" cy="124.789" r="119.649"/>
<g>
	<path fill="#E3CDB6" d="M100.161,55.466c0.896,1.135,2.261,2.14,2.618,3.425c6.257,22.505,12.391,45.044,18.556,67.575
		c0.152,0.556,0.367,1.095,0.627,1.857c2.149-0.943,4.219-1.811,6.254-2.752c8.654-3.998,17.713-6.451,27.244-6.913
		c11.601-0.561,23.15-0.286,34.41,3.067c0.976,0.29,1.898,0.759,2.869,1.068c1.961,0.624,2.687,1.906,2.67,3.971
		c-0.074,9.026-0.042,18.053-0.013,27.079c0.003,0.848,0.257,1.694,0.394,2.541c0,0.147,0,0.294,0,0.441
		c-0.137,0.768-0.389,1.535-0.393,2.303c-0.033,6.084-0.146,12.173,0.029,18.252c0.106,3.701-0.935,5.593-4.649,6.699
		c-4.791,1.427-9.772,2.268-14.713,3.122c-3.08,0.532-6.236,0.624-9.358,0.913c-3.525,0-7.051,0-10.576,0
		c-0.94-0.113-1.882-0.215-2.82-0.342c-6.295-0.857-12.661-1.375-18.869-2.657c-10.99-2.268-20.991-7.159-30.67-12.697
		c-2.486-1.422-4.98-1.727-7.792-1.287c-3.095,0.483-6.262,0.762-9.391,0.716c-4.387-0.065-7.604-2.199-9.497-6.279
		c-2.139-4.61-1.654-9.022,1.067-13.137c1.968-2.976,2.115-5.863,0.902-9.145c-3.176-8.589-4.704-17.566-4.809-26.661
		c-0.115-10.034-0.019-20.121,0.89-30.103c0.839-9.215,2.799-18.335,4.469-27.459c0.239-1.306,1.628-2.402,2.485-3.595
		C88.116,55.466,94.138,55.466,100.161,55.466z M84.947,61.222c-0.243,0.938-0.518,1.695-0.631,2.476
		c-1.364,9.48-3.142,18.926-3.956,28.454c-1.465,17.159-1.437,34.281,4.534,50.827c1.371,3.8,1.037,7.471-1.059,10.971
		c-0.675,1.127-1.314,2.291-1.818,3.502c-1.873,4.5,0.856,8.891,5.692,8.911c2.468,0.01,4.969-0.377,7.399-0.865
		c3.671-0.738,7.101-0.429,10.414,1.395c2.949,1.625,5.959,3.141,8.958,4.675c11.6,5.934,23.812,9.836,36.894,10.338
		c7.539,0.289,15.118,0.299,22.647-0.135c4.7-0.271,9.347-1.562,13.994-2.511c0.629-0.128,1.591-0.923,1.602-1.425
		c0.114-5.621,0.072-11.246,0.072-17.051c-0.966,0.309-1.649,0.543-2.34,0.747c-11.02,3.248-22.147,4.946-33.577,2.34
		c-9.464-2.158-17.263-7.075-23.699-14.263c-1.229-1.373-1.317-2.777,0.009-4.077c1.349-1.323,2.768-1.061,4.081,0.135
		c0.487,0.444,0.922,0.946,1.376,1.427c7.774,8.224,17.439,12.039,28.635,12.377c8.262,0.25,16.111-1.688,23.882-4.201
		c1.428-0.462,1.682-1.26,1.674-2.588c-0.049-7.637-0.092-15.275,0.027-22.911c0.028-1.788-0.663-2.566-2.221-2.828
		c-4.898-0.821-9.777-1.863-14.709-2.351c-9.307-0.919-18.743-1.019-27.772,1.376c-7.786,2.065-15.214,5.501-22.76,8.433
		c-3.183,1.236-4.482,0.749-5.366-2.486c-3.391-12.401-6.768-24.806-10.156-37.207c-2.887-10.569-5.765-21.141-8.711-31.693
		c-0.189-0.678-0.918-1.696-1.427-1.715C92.758,61.157,88.875,61.222,84.947,61.222z"/>
</g>
<g display="none">
	<path display="inline" fill="#E3CDB6" d="M124.571,124.753c1.685,6.479,3.437,12.696,4.911,18.978
		c4.78,20.366,4.337,40.279-5.356,59.37c-0.887,1.748-2,2.61-3.916,2.781c-11.701,1.046-23.397,2.158-35.097,3.22
		c-3.088,0.281-4.206-0.722-4.502-3.923c-2.175-23.474-4.354-46.947-6.495-70.424c-0.128-1.402-0.519-2.386-1.725-3.305
		c-3.459-2.635-5.358-6.218-5.746-10.589c-0.582-6.553-1.255-13.098-1.795-19.655c-0.583-7.071,3.447-12.836,10.259-14.896
		c0.505-0.153,1.032-0.389,1.425-0.73c6.647-5.759,14.509-9.386,22.485-12.79c14.305-6.105,29.113-10.71,44.206-14.371
		c13.922-3.378,28.015-5.867,42.279-7.306c3.688-0.372,4.639,0.432,4.976,4.067c1.814,19.575,3.625,39.149,5.432,58.725
		c0.32,3.464-0.374,4.282-3.871,4.606c-22.07,2.043-44.141,4.084-66.211,6.126C125.368,124.68,124.906,124.722,124.571,124.753z
		 M86.625,202.809c9.142-0.846,18.013-1.924,26.917-2.376c4.173-0.212,6.246-1.656,7.624-5.635
		c3.165-9.136,6.15-18.362,5.319-28.075c-1.26-14.717-3.004-29.423-9.738-42.954c-1.055-2.119-0.112-3.863,2.212-4.445
		c0.828-0.207,1.702-0.247,2.558-0.327c21.765-2.017,43.531-4.03,65.297-6.043c0.902-0.083,1.804-0.167,2.701-0.25
		c-1.722-18.617-3.413-36.896-5.148-55.66c-10.308,1.725-20.469,3.091-30.479,5.179c-15.284,3.188-30.344,7.329-44.886,13.078
		c-10.425,4.122-21.026,8.018-29.521,15.802c-0.425,0.389-1.09,0.575-1.676,0.721c-4.935,1.232-7.283,4.298-6.87,9.354
		c0.53,6.48,1.151,12.955,1.84,19.42c0.461,4.328,3.655,7.531,7.857,8.089c0.926,0.123,2.058-0.173,2.756,0.265
		c1.057,0.663,2.339,1.684,2.578,2.762c0.352,1.586-0.84,2.754-2.564,3.008c-0.977,0.144-1.968,0.192-3.047,0.292
		C82.447,157.64,84.522,180.078,86.625,202.809z"/>
	<path display="inline" fill="#E3CDB6" d="M77.674,106.899c-1.183-3.166,0.535-5.36,3.742-6.976
		c2.014-1.015,3.834-2.409,5.807-3.514c1.618-0.906,3.294-1.182,4.537,0.665c1.083,1.611,0.571,3.18-1.41,4.495
		c-0.845,0.561-1.67,1.188-2.588,1.597c-2.995,1.334-4.703,3.146-3.758,6.807c0.468,1.816-0.835,3.105-2.815,3.242
		c-1.9,0.132-2.883-0.959-3.171-2.727C77.856,109.488,77.819,108.466,77.674,106.899z"/>
</g>
<g>
	<path id="item7" fill="#00C3D2" d="M110.422,142.458c-0.037,2.44-0.729,4.96,0.072,6.845c0.853,2.003,3.123,3.404,4.42,5.751
		c-1.15-0.408-2.293-0.837-3.454-1.215c-1.12-0.362-2.258-0.67-4.06-1.201c0.757,2.728,1.393,5.017,2.347,8.459
		c-2.7-2.367-4.537-3.973-7.227-6.33c-0.752,2.774-1.401,5.173-2.053,7.571c-0.593-0.223-1.185-0.445-1.776-0.668
		c0.331-2.329,0.664-4.658,1.051-7.379c-1.925,0.629-3.577,1.168-5.226,1.707c4.755-4.888,2.118-8.561-2.23-12.023
		c0.319-0.219,0.636-0.439,0.954-0.659c2.155,1.436,4.31,2.874,6.698,4.466c1.535-3.467,2.742-6.196,4.374-9.885
		c0.545,3.116,0.898,5.132,1.304,7.446C107.461,144.236,108.986,143.319,110.422,142.458z"/>
	<path id="item6" fill="#00C3D2" d="M145.265,127.004c1.05,3.215,1.906,5.837,2.853,8.737c-6.378,0.936-12.505,1.837-18.63,2.737
		c-0.054-0.21-0.108-0.417-0.162-0.627C134.477,134.346,139.626,130.842,145.265,127.004z"/>
	<path id="item5" fill="#00C3D2" d="M69.768,155.876c-5.937,2.545-11.876,5.088-17.929,7.683c-0.779-1.653-1.494-3.172-2.439-5.18
		c6.944-1.189,13.541-2.315,20.138-3.443C69.615,155.251,69.692,155.563,69.768,155.876z"/>
	<path id="item4" fill="#00C3D2" d="M140.093,119.353c-3.844,3.655-7.56,7.189-11.277,10.724c-0.217-0.151-0.433-0.302-0.652-0.453
		c2.584-4.448,5.17-8.895,7.932-13.649C137.537,117.193,138.782,118.246,140.093,119.353z"/>
	<path id="item3" fill="#00C3D2" d="M57.58,144.126c4.39,1.58,8.463,3.044,12.536,4.51c-0.042,0.252-0.083,0.506-0.124,0.76
		c-4.248-0.182-8.497-0.362-13.465-0.575C56.901,147.155,57.204,145.796,57.58,144.126z"/>
	<path id="item2" fill="#00C3D2" d="M135.135,144.721c4.135,0.708,8.273,1.415,12.791,2.188c-0.347,1.265-0.666,2.425-1.062,3.866
		c-4.242-1.835-8.19-3.541-12.137-5.248C134.863,145.258,134.999,144.99,135.135,144.721z"/>
	<path id="item1" fill="#00C3D2" d="M69.572,162.536c-1.584,2.263-3.168,4.527-4.95,7.074c-0.981-0.711-1.871-1.356-3.207-2.323
		c2.786-1.992,5.205-3.723,7.624-5.451C69.216,162.068,69.395,162.301,69.572,162.536z"/>
</g>
</svg>
