<?xml version="1.0" encoding="utf-8"?>
<!-- Generator: Adobe Illustrator 17.0.0, SVG Export Plug-In . SVG Version: 6.00 Build 0)  -->
<!DOCTYPE svg PUBLIC "-//W3C//DTD SVG 1.1//EN" "http://www.w3.org/Graphics/SVG/1.1/DTD/svg11.dtd">
<svg version="1.1" id="Слой_1" xmlns="http://www.w3.org/2000/svg" xmlns:xlink="http://www.w3.org/1999/xlink" x="0px" y="0px"
	 width="250px" height="250px" viewBox="0 0 250 250" enable-background="new 0 0 250 250" xml:space="preserve">
<circle id="curcle" fill="none" stroke="#00C3D2" stroke-width="8" stroke-miterlimit="10" cx="125" cy="124.789" r="119.649"/>
<g>
	<path fill="#E3CDB6" d="M163.73,147.998c-0.273,2.897-0.604,5.791-0.808,8.693c-0.539,7.64-2.685,14.861-5.404,21.973
		c-0.945,2.472-1.433,5.137-1.948,7.749c-0.302,1.536-0.674,2.99-2.507,2.766c-1.75-0.214-2.191-1.651-1.855-3.242
		c0.583-2.764,0.85-5.676,1.929-8.239c4.082-9.693,5.924-19.783,5.949-30.235c0.043-18.142,0.005-36.284,0.022-54.426
		c0.002-2.248-0.625-4.367-2.863-4.92c-1.647-0.407-3.855-0.257-5.253,0.58c-1.107,0.663-1.895,2.74-1.914,4.201
		c-0.151,11.564-0.084,23.132-0.084,34.698c0,0.555,0.006,1.109-0.003,1.664c-0.025,1.556-0.441,2.981-2.261,3.018
		c-1.946,0.039-2.13-1.456-2.129-3.003c0.011-17.983,0.01-35.967-0.003-53.95c-0.001-1.023-0.041-2.063-0.228-3.064
		c-0.52-2.783-2.755-4.633-5.28-4.471c-2.804,0.179-4.818,2.388-4.822,5.445c-0.019,17.35-0.009,34.699-0.011,52.049
		c0,0.713,0.245,1.592-0.082,2.101c-0.528,0.823-1.419,1.905-2.19,1.933c-0.669,0.024-1.543-1.172-2.024-2.003
		c-0.312-0.539-0.089-1.393-0.089-2.105c-0.002-19.806,0.005-39.611-0.018-59.417c-0.001-1.091-0.069-2.237-0.402-3.261
		c-0.741-2.281-3.134-3.697-5.378-3.378c-2.359,0.335-4.222,2.193-4.499,4.552c-0.083,0.704-0.028,1.424-0.028,2.137
		c-0.001,19.885,0,39.77-0.005,59.654c0,0.79,0.201,1.733-0.153,2.331c-0.416,0.703-1.399,1.595-2.024,1.517
		c-0.768-0.097-1.593-1.006-2.063-1.768c-0.321-0.52-0.083-1.389-0.083-2.101c-0.001-18.38,0.051-36.759-0.087-55.138
		c-0.013-1.702-0.893-3.675-1.988-5.02c-1.277-1.569-3.404-1.542-5.27-0.718c-1.994,0.881-3.037,2.557-3.043,4.706
		c-0.035,13.468-1.033,27.038,0.308,40.37c1.042,10.364,0.619,20.667,1.317,31.104c6.176,1.764,9.407,6.49,11.743,12.079
		c0.584,1.397,1.038,2.872-0.77,3.613c-1.68,0.689-2.443-0.401-3.208-1.855c-1.311-2.492-2.712-5.023-4.554-7.116
		c-1.088-1.237-3.024-2.022-4.71-2.365c-2.226-0.452-3.079-1.416-3.054-3.654c0.079-7.129,0.257-14.27-0.068-21.385
		c-0.162-3.555-0.954-7.2-2.153-10.556c-1.267-3.546-4.344-5.213-8.424-5.362c-0.076,1.375-0.19,2.602-0.204,3.83
		c-0.15,12.665-0.448,25.331-0.372,37.994c0.068,11.46,3.887,21.459,12.337,29.565c2.596,2.491,4.646,5.564,6.849,8.444
		c0.552,0.721,1.055,1.753,0.992,2.598c-0.069,0.928-0.656,2.365-1.315,2.557c-0.763,0.222-2.478-0.462-2.695-1.114
		c-1.509-4.521-5-7.458-8.159-10.626c-8.378-8.402-12.357-18.65-12.412-30.331c-0.07-14.565,0.264-29.133,0.455-43.699
		c0.045-3.416,1.039-4.405,4.381-3.77c3.045,0.579,5.992,1.674,9.285,2.629c0-0.346,0-1.148,0-1.95
		c0-9.744,0.406-19.511-0.124-29.226c-0.451-8.264,6.979-14.213,15.159-9.816c2.332-4.596,5.905-7.262,11.245-6.267
		c4.475,0.834,6.912,4.088,7.77,9.745c4.373-2.093,8.384-1.765,11.864,1.831c2.07,2.139,2.639,4.802,2.672,7.633
		c0.039,3.309,0.009,6.62,0.009,10.176c3.748-1.662,7.461-2.123,10.44,0.551c1.87,1.678,2.893,4.299,4.296,6.497
		C163.73,110.286,163.73,129.142,163.73,147.998z"/>
</g>
<g>
	<path id="item7" fill="#00C3D2" d="M137.273,175.742c-0.45,2.399-1.559,4.765-1.089,6.758c0.501,2.119,2.501,3.883,3.382,6.416
		c-1.065-0.597-2.118-1.214-3.198-1.782c-1.042-0.547-2.112-1.043-3.798-1.871c0.284,2.817,0.524,5.181,0.881,8.735
		c-2.26-2.79-3.798-4.684-6.051-7.463c-1.211,2.606-2.257,4.861-3.306,7.114c-0.546-0.32-1.092-0.639-1.637-0.959
		c0.721-2.239,1.443-4.479,2.286-7.094c-2.004,0.294-3.723,0.546-5.44,0.797c5.514-4.012,3.537-8.078-0.161-12.227
		c0.351-0.162,0.701-0.325,1.051-0.488c1.881,1.78,3.761,3.562,5.845,5.536c2.1-3.157,3.752-5.643,5.985-9.002
		c0.01,3.163,0.015,5.21,0.024,7.559C134.054,176.993,135.712,176.347,137.273,175.742z"/>
	<path id="item6" fill="#00C3D2" d="M174.231,166.411c0.49,3.346,0.89,6.075,1.332,9.094c-6.445-0.157-12.635-0.307-18.824-0.458
		c-0.017-0.216-0.036-0.429-0.053-0.645C162.354,171.82,168.023,169.239,174.231,166.411z"/>
	<path id="item5" fill="#00C3D2" d="M94.935,182.081c-6.283,1.503-12.566,3.004-18.971,4.536c-0.487-1.761-0.936-3.379-1.527-5.518
		c7.045,0.004,13.738,0.011,20.43,0.017C94.889,181.439,94.912,181.76,94.935,182.081z"/>
	<path id="item4" fill="#00C3D2" d="M170.429,157.996c-4.408,2.951-8.668,5.805-12.93,8.659c-0.188-0.186-0.376-0.371-0.566-0.557
		c3.3-3.946,6.602-7.891,10.129-12.108C168.275,155.434,169.324,156.682,170.429,157.996z"/>
	<path id="item3" fill="#00C3D2" d="M84.912,168.437c4.059,2.301,7.825,4.433,11.592,6.568c-0.084,0.242-0.168,0.484-0.251,0.728
		c-4.156-0.899-8.313-1.796-13.173-2.847C83.73,171.307,84.259,170.019,84.912,168.437z"/>
	<path id="item2" fill="#00C3D2" d="M161.246,182.157c3.956,1.398,7.914,2.795,12.236,4.323c-0.557,1.188-1.067,2.277-1.702,3.63
		c-3.87-2.527-7.472-4.877-11.073-7.228C160.888,182.64,161.066,182.399,161.246,182.157z"/>
	<path id="item1" fill="#00C3D2" d="M93.613,188.611c-1.944,1.963-3.889,3.925-6.077,6.134c-0.847-0.866-1.615-1.653-2.767-2.833
		c3.083-1.492,5.761-2.788,8.437-4.081C93.342,188.09,93.478,188.35,93.613,188.611z"/>
</g>
</svg>
