<?xml version="1.0" encoding="utf-8"?>
<!-- Generator: Adobe Illustrator 17.0.0, SVG Export Plug-In . SVG Version: 6.00 Build 0)  -->
<!DOCTYPE svg PUBLIC "-//W3C//DTD SVG 1.1//EN" "http://www.w3.org/Graphics/SVG/1.1/DTD/svg11.dtd">
<svg version="1.1" id="Слой_1" xmlns="http://www.w3.org/2000/svg" xmlns:xlink="http://www.w3.org/1999/xlink" x="0px" y="0px"
	 width="250px" height="250px" viewBox="0 0 250 250" enable-background="new 0 0 250 250" xml:space="preserve">
<circle id="curcle" fill="none" stroke="#00C3D2" stroke-width="8" stroke-miterlimit="10" cx="125" cy="124.789" r="119.649"/>
<g>
	<path fill="#E3CDB6" d="M124.571,124.753c1.685,6.479,3.437,12.696,4.911,18.978c4.78,20.366,4.337,40.279-5.356,59.37
		c-0.887,1.748-2,2.61-3.916,2.781c-11.701,1.046-23.397,2.158-35.097,3.22c-3.088,0.281-4.206-0.722-4.502-3.923
		c-2.175-23.474-4.354-46.947-6.495-70.424c-0.128-1.402-0.519-2.386-1.725-3.305c-3.459-2.635-5.358-6.218-5.746-10.589
		c-0.582-6.553-1.255-13.098-1.795-19.655c-0.583-7.071,3.447-12.836,10.259-14.896c0.505-0.153,1.032-0.389,1.425-0.73
		c6.647-5.759,14.509-9.386,22.485-12.79c14.305-6.105,29.113-10.71,44.206-14.371c13.922-3.378,28.015-5.867,42.279-7.306
		c3.688-0.372,4.639,0.432,4.976,4.067c1.814,19.575,3.625,39.149,5.432,58.725c0.32,3.464-0.374,4.282-3.871,4.606
		c-22.07,2.043-44.141,4.084-66.211,6.126C125.368,124.68,124.906,124.722,124.571,124.753z M86.625,202.809
		c9.142-0.846,18.013-1.924,26.917-2.376c4.173-0.212,6.246-1.656,7.624-5.635c3.165-9.136,6.15-18.362,5.319-28.075
		c-1.26-14.717-3.004-29.423-9.738-42.954c-1.055-2.119-0.112-3.863,2.212-4.445c0.828-0.207,1.702-0.247,2.558-0.327
		c21.765-2.017,43.531-4.03,65.297-6.043c0.902-0.083,1.804-0.167,2.701-0.25c-1.722-18.617-3.413-36.896-5.148-55.66
		c-10.308,1.725-20.469,3.091-30.479,5.179c-15.284,3.188-30.344,7.329-44.886,13.078c-10.425,4.122-21.026,8.018-29.521,15.802
		c-0.425,0.389-1.09,0.575-1.676,0.721c-4.935,1.232-7.283,4.298-6.87,9.354c0.53,6.48,1.151,12.955,1.84,19.42
		c0.461,4.328,3.655,7.531,7.857,8.089c0.926,0.123,2.058-0.173,2.756,0.265c1.057,0.663,2.339,1.684,2.578,2.762
		c0.352,1.586-0.84,2.754-2.564,3.008c-0.977,0.144-1.968,0.192-3.047,0.292C82.447,157.64,84.522,180.078,86.625,202.809z"/>
	<path fill="#E3CDB6" d="M77.674,106.899c-1.183-3.166,0.535-5.36,3.742-6.976c2.014-1.015,3.834-2.409,5.807-3.514
		c1.618-0.906,3.294-1.182,4.537,0.665c1.083,1.611,0.571,3.18-1.41,4.495c-0.845,0.561-1.67,1.188-2.588,1.597
		c-2.995,1.334-4.703,3.146-3.758,6.807c0.468,1.816-0.835,3.105-2.815,3.242c-1.9,0.132-2.883-0.959-3.171-2.727
		C77.856,109.488,77.819,108.466,77.674,106.899z"/>
</g>
<g>
	<path id="item7" fill="#00C3D2" d="M106.947,104.132c-0.037,2.44-0.729,4.96,0.072,6.845c0.853,2.003,3.123,3.404,4.42,5.751
		c-1.15-0.408-2.293-0.837-3.454-1.215c-1.12-0.362-2.258-0.67-4.06-1.201c0.757,2.728,1.393,5.017,2.347,8.459
		c-2.7-2.367-4.537-3.973-7.227-6.33c-0.752,2.774-1.401,5.173-2.053,7.571c-0.593-0.223-1.185-0.445-1.776-0.668
		c0.331-2.329,0.664-4.658,1.051-7.379c-1.925,0.629-3.577,1.168-5.226,1.707c4.755-4.888,2.118-8.561-2.23-12.023
		c0.319-0.219,0.636-0.439,0.954-0.659c2.155,1.436,4.31,2.874,6.698,4.466c1.535-3.467,2.742-6.196,4.374-9.885
		c0.545,3.116,0.898,5.132,1.304,7.446C103.987,105.91,105.511,104.993,106.947,104.132z"/>
	<path id="item6" fill="#00C3D2" d="M141.791,88.677c1.05,3.215,1.906,5.837,2.853,8.737c-6.378,0.936-12.505,1.837-18.63,2.737
		c-0.054-0.21-0.108-0.417-0.162-0.627C131.002,96.019,136.152,92.515,141.791,88.677z"/>
	<path id="item5" fill="#00C3D2" d="M66.294,117.549c-5.937,2.545-11.876,5.088-17.929,7.683c-0.779-1.653-1.494-3.172-2.439-5.18
		c6.944-1.189,13.541-2.315,20.138-3.443C66.14,116.924,66.217,117.237,66.294,117.549z"/>
	<path id="item4" fill="#00C3D2" d="M136.618,81.027c-3.844,3.655-7.56,7.189-11.277,10.724c-0.217-0.151-0.433-0.302-0.652-0.453
		c2.584-4.448,5.17-8.895,7.932-13.649C134.062,78.867,135.308,79.919,136.618,81.027z"/>
	<path id="item3" fill="#00C3D2" d="M54.105,105.8c4.39,1.58,8.463,3.044,12.536,4.51c-0.042,0.252-0.083,0.506-0.124,0.76
		c-4.248-0.182-8.497-0.362-13.465-0.575C53.427,108.829,53.73,107.469,54.105,105.8z"/>
	<path id="item2" fill="#00C3D2" d="M131.66,106.394c4.135,0.708,8.273,1.415,12.791,2.188c-0.347,1.265-0.666,2.425-1.062,3.866
		c-4.242-1.835-8.19-3.541-12.137-5.248C131.389,106.931,131.524,106.663,131.66,106.394z"/>
	<path id="item1" fill="#00C3D2" d="M66.098,124.209c-1.584,2.263-3.168,4.527-4.95,7.074c-0.981-0.711-1.871-1.356-3.207-2.323
		c2.786-1.992,5.205-3.723,7.624-5.451C65.742,123.741,65.92,123.975,66.098,124.209z"/>
</g>
</svg>
