<?xml version="1.0" encoding="utf-8"?>
<!-- Generator: Adobe Illustrator 17.0.0, SVG Export Plug-In . SVG Version: 6.00 Build 0)  -->
<!DOCTYPE svg PUBLIC "-//W3C//DTD SVG 1.1//EN" "http://www.w3.org/Graphics/SVG/1.1/DTD/svg11.dtd">
<svg version="1.1" id="Слой_1" xmlns="http://www.w3.org/2000/svg" xmlns:xlink="http://www.w3.org/1999/xlink" x="0px" y="0px"
	 width="250px" height="250px" viewBox="0 0 250 250" enable-background="new 0 0 250 250" xml:space="preserve">
<path id="leg" display="none" fill="#E3CDB6" d="M158.377,40.184c-1.441,0.994-2.441,1.685-3.762,2.597
	c0.673,1.6,1.304,3.2,2.01,4.765c8.242,18.246,10.156,37.416,9.716,57.263c-0.34,15.387,0.994,30.833,2.136,46.209
	c0.204,2.738,2.805,5.535,4.813,7.857c5.031,5.816,7.255,12.379,6.406,20.007c-0.52,4.674-3.248,7.735-7.254,9.761
	c-8.095,4.086-16.642,5.523-25.446,3.094c-7.105-1.96-13.732-1.205-20.331,1.763c-6.478,2.916-13.019,5.689-19.554,8.472
	c-1.627,0.695-3.37,1.768-5.007,1.682c-9.136-0.474-18.507-0.183-27.304-2.254c-7.298-1.717-8.302-10.619-2.549-15.738
	c2.177-1.935,4.965-3.729,7.748-4.34c9.387-2.064,16.673-7.52,23.354-13.844c7.644-7.232,14.959-14.822,22.209-22.452
	c1.031-1.083,1.603-3.469,1.196-4.916c-8.633-30.627-17.425-61.21-26.232-91.788c-0.715-2.482-1.899-4.828-2.628-7.307
	c-1.651-5.609-1.228-6.174,4.903-7.343c6.517,22.647,13.053,45.293,19.547,67.952c3.765,13.133,7.567,26.26,11.073,39.462
	c0.458,1.729-0.076,4.561-1.275,5.762c-10.7,10.729-21.344,21.555-32.691,31.573c-4.217,3.725-10.249,5.398-15.469,7.979
	c-2.314,1.142-4.901,1.887-6.946,3.382c-3.385,2.478-2.914,5.036,1.047,6.571c1.346,0.521,2.928,0.461,4.409,0.6
	c4.2,0.395,8.398,0.894,12.61,1.072c2.103,0.089,4.404,0.004,6.319-0.753c7.493-2.96,14.93-6.089,22.272-9.41
	c8.444-3.819,17.034-4.522,25.924-2.008c6.521,1.843,12.729,0.512,18.745-2.049c6.88-2.928,6.126-9.477,2.636-17.39
	c-0.43-0.977-1.15-1.913-1.949-2.626c-6.271-5.59-7.554-12.984-7.709-20.826c-0.324-16.378-0.676-32.757-1.016-49.136
	c-0.345-16.63-3.87-32.481-11.423-47.385c-1.063-2.101-3.37-4.154-0.328-6.824c2.723-2.394,5.158-2.714,8.006-0.589
	C157.002,39.34,157.461,39.597,158.377,40.184z"/>
<circle id="curcle" fill="none" stroke="#00C3D2" stroke-width="8" stroke-miterlimit="10" cx="125" cy="124.789" r="119.649"/>
<g>
	<path id="item7" fill="#00C3D2" d="M184.337,144.728c-0.793,2.308-2.233,4.489-2.057,6.529c0.189,2.169,1.912,4.205,2.416,6.839
		c-0.967-0.745-1.92-1.508-2.906-2.227c-0.952-0.692-1.938-1.338-3.487-2.402c-0.127,2.828-0.233,5.202-0.395,8.77
		c-1.832-3.088-3.079-5.185-4.905-8.261c-1.576,2.403-2.938,4.482-4.302,6.56c-0.494-0.396-0.988-0.791-1.481-1.186
		c1.038-2.111,2.077-4.222,3.29-6.688c-2.025,0-3.763,0-5.498,0c6.037-3.17,4.671-7.48,1.613-12.121
		c0.371-0.109,0.741-0.22,1.111-0.33c1.603,2.034,3.205,4.07,4.981,6.325c2.535-2.819,4.53-5.039,7.227-8.039
		c-0.449,3.131-0.74,5.157-1.072,7.483C180.971,145.499,182.705,145.101,184.337,144.728z"/>
	<path id="item6" fill="#00C3D2" d="M222.257,140.854c0,3.382,0,6.14,0,9.191c-6.354-1.09-12.457-2.136-18.559-3.182
		c0.014-0.216,0.027-0.43,0.041-0.646C209.722,144.484,215.705,142.752,222.257,140.854z"/>
	<path id="item5" fill="#00C3D2" d="M141.527,144.862c-6.434,0.576-12.869,1.15-19.428,1.738c-0.227-1.813-0.436-3.479-0.711-5.681
		c6.97,1.025,13.591,2.003,20.212,2.979C141.575,144.22,141.551,144.541,141.527,144.862z"/>
	<path id="item4" fill="#00C3D2" d="M219.715,131.976c-4.789,2.281-9.418,4.487-14.049,6.693c-0.159-0.211-0.318-0.422-0.479-0.633
		c3.837-3.426,7.676-6.851,11.777-10.512C217.956,129.129,218.813,130.516,219.715,131.976z"/>
	<path id="item3" fill="#00C3D2" d="M133.588,129.909c3.683,2.865,7.1,5.521,10.517,8.179c-0.118,0.227-0.236,0.455-0.354,0.684
		c-3.982-1.492-7.965-2.982-12.621-4.727C132.003,132.578,132.713,131.38,133.588,129.909z"/>
	<path id="item2" fill="#00C3D2" d="M207.127,154.551c3.711,1.957,7.425,3.913,11.48,6.051c-0.723,1.095-1.386,2.098-2.21,3.345
		c-3.463-3.061-6.686-5.909-9.908-8.757C206.702,154.977,206.914,154.764,207.127,154.551z"/>
	<path id="item1" fill="#00C3D2" d="M139.273,151.132c-2.208,1.66-4.417,3.32-6.902,5.188c-0.712-0.98-1.358-1.87-2.327-3.204
		c3.267-1.029,6.104-1.923,8.94-2.815C139.08,150.577,139.177,150.854,139.273,151.132z"/>
</g>
<g>
	<path fill="#E3CDB6" stroke="#E3CDB6" stroke-width="3" stroke-miterlimit="10" d="M130.591,50.672
		c5.674,1.13,9.313,4.631,11.623,9.794c0.848,1.895,1.99,3.659,2.997,5.483c0.084,0.152,0.21,0.304,0.228,0.466
		c0.453,4.077,1.155,8.155,1.165,12.234c0.003,1.101-1.942,2.837-3.272,3.171c-2.257,0.567-4.735,0.247-7.121,0.31
		c-1.512,0.04-3.245-0.367-4.497,0.228c-6.097,2.901-12.34,3.432-18.756,1.592c-3.008-0.863-5.202,0.067-7.234,2.18
		c-5.71,5.937-8.561,13.386-11.12,20.974c-0.8,2.371-1.468,4.83-1.796,7.301c-0.255,1.926-0.107,3.974,0.251,5.896
		c0.531,2.852,1.406,5.641,2.119,8.397c8.651-11.155,19.874-13.273,33.049-7.703c5.982-7.04,13.703-11.146,22.912-12.492
		c9.71-1.419,18.879,0.104,27.268,5.326c1.562,0.973,2.899,1.271,4.594,0.603c5.141-2.024,10.31-3.976,15.788-6.079
		c0.256,0.379,0.766,1.133,1.421,2.102c-10.184,6.149-21.139,9.006-32.922,9.781c0-1.132,0-1.976,0-2.982
		c2.62-0.365,5.319-0.741,8.343-1.163c-13.868-8.977-41.155-6.337-49.119,14.678c-0.861-0.249-1.741-0.504-2.962-0.858
		c0.879-2.039,1.687-3.913,2.504-5.809c-8.938-7.604-24.868-1.562-30.551,11.911c-3.121-1.625-4.197,1.012-5.867,2.827
		c-2.817,3.061-5.807,5.965-8.777,8.882c-0.587,0.577-1.409,0.916-2.251,1.445c-0.55-0.931-0.982-1.664-1.157-1.96
		c3.755-4.054,7.351-7.895,10.9-11.778c3.465-3.791,4.081-8.087,2.11-12.789c-1.326-3.162-1.441-6.385-0.665-9.706
		c2.247-9.627,5.557-18.787,11.573-26.781c3.423-4.548,7.606-6.965,13.518-5.132c5.323,1.65,10.382,0.668,15.451-1.503
		c1.902-0.814,4.34-0.436,6.536-0.479c1.018-0.02,2.05,0.42,3.06,0.366c3.82-0.204,4.382-1.207,2.954-4.713
		c-0.339-0.833-0.733-2.022-0.393-2.684c1.141-2.224,0.28-3.981-0.779-5.83c-1.294-2.259-2.477-4.581-3.776-6.837
		c-2.424-4.213-6.118-5.917-10.958-5.037c-16.454,2.991-29.954,10.411-39.122,25.02c-3.485,5.554-8.108,10.393-12.208,15.562
		c-2.644,3.334-5.648,6.45-7.852,10.054c-8.333,13.626-16.11,27.568-20.893,42.918c-0.807,2.589-0.833,5.469-0.912,8.223
		c-0.079,2.735,1.645,4.688,3.631,6.327c6.192,5.111,13.594,7.634,21.225,9.423c23.639,5.541,46.879,4.029,69.652-4.413
		c5.617-2.082,6.608-1.784,9.751,3.292c2.513,4.057,4.997,8.133,7.599,12.371c-0.861,0.554-1.624,1.046-2.63,1.694
		c-2.686-4.33-5.444-8.431-7.82-12.741c-1.379-2.501-2.678-2.857-5.359-1.844c-17.481,6.606-35.571,9.06-54.22,7.574
		c-10.543-0.84-20.78-2.869-30.525-7.056c-1.905-0.818-3.752-1.808-5.53-2.878c-8.635-5.195-10.741-10.407-8.194-20.174
		c2.631-10.088,7.841-19.053,12.311-28.349c5.895-12.261,13.791-23.03,22.993-33.016c4.21-4.568,7.347-10.111,11.117-15.101
		c7.53-9.965,17.998-15.269,29.763-18.441c2.566-0.692,5.132-1.387,7.698-2.08C128.501,50.672,129.546,50.672,130.591,50.672z"/>
</g>
</svg>
