<?xml version="1.0" encoding="utf-8"?>
<!-- Generator: Adobe Illustrator 17.0.0, SVG Export Plug-In . SVG Version: 6.00 Build 0)  -->
<!DOCTYPE svg PUBLIC "-//W3C//DTD SVG 1.1//EN" "http://www.w3.org/Graphics/SVG/1.1/DTD/svg11.dtd">
<svg version="1.1" id="Слой_1" xmlns="http://www.w3.org/2000/svg" xmlns:xlink="http://www.w3.org/1999/xlink" x="0px" y="0px"
	 width="250px" height="250px" viewBox="0 0 250 250" enable-background="new 0 0 250 250" xml:space="preserve">
<circle id="curcle" fill="none" stroke="#00C3D2" stroke-width="8" stroke-miterlimit="10" cx="125" cy="124.789" r="119.649"/>
<path fill="#E3CDB6" d="M205.224,83.059c-1.566,8.56-7.331,13.703-14.312,18.045c-8.637,5.373-17.026,11.145-25.668,16.51
	c-7.558,4.691-9.995,11.714-9.919,20.059c0.013,1.382,0.339,2.76,0.377,4.144c0.03,1.096,0.273,2.66-0.325,3.223
	c-4.043,3.803-2.304,8.584-1.911,12.779c1.026,10.964,2.369,21.896,1.654,32.925c-0.382,5.883-1.17,11.74-1.792,17.775
	c-0.875,0.102-1.575,0.252-2.276,0.254c-9.73,0.016-19.46-0.03-29.19,0.046c-1.923,0.015-2.883-0.399-2.951-2.557
	c-0.051-1.614-0.704-3.21-1.636-4.859c-0.509,1.899-0.892,3.845-1.59,5.671c-0.271,0.708-1.248,1.624-1.912,1.631
	c-9.265,0.108-18.533,0.023-27.799,0.114c-2.117,0.021-2.087-1.446-2.373-2.721c-2.224-9.928-2.376-20.005-1.932-30.097
	c0.191-4.335,4.509-42.633,4.928-46.958c0.403-4.152-2.57,29.205,2.072,29.289c-0.458,4.004-0.91,7.997-1.373,11.987
	c-1.221,10.53-1.178,21.04,0.693,31.491c0.133,0.742,1.341,1.827,2.07,1.843c6.484,0.144,12.974,0.157,19.456-0.016
	c0.755-0.02,1.856-1.286,2.137-2.181c0.881-2.811,1.442-5.721,2.134-8.592c0.489-2.028,1.737-3.381,3.852-3.33
	c2.158,0.053,3.21,1.583,3.613,3.593c0.563,2.807,1.217,5.6,1.659,8.426c0.242,1.544,0.779,2.235,2.462,2.217
	c7.135-0.076,14.271-0.075,21.406,0.001c1.657,0.018,2.388-0.585,2.446-2.186c0.291-7.941,1.086-15.902,0.772-23.818
	c-0.436-10.978-1.697-21.923-2.621-32.881c-0.076-0.896-0.276-1.781-0.484-3.078c-3.141,1.87-5.963,3.553-8.788,5.232
	c-1.033,0.613-2.042,1.275-3.113,1.813c-3.629,1.822-7.444,2.959-10.918,0.04c-3.458-2.905-4.319-6.933-3.612-11.33
	c0.673-4.18,2.726-7.611,5.656-10.576c5.495-5.561,11.442-10.539,18.563-13.907c2.2-1.041,3.163-2.313,3.449-4.952
	c0.784-7.246,2.227-14.418,3.277-21.639c0.983-6.763,1.796-13.551,2.679-20.328c0.06-0.459,0.041-0.929,0.117-1.384
	c0.302-1.795,0.233-4.107,2.986-3.676c2.761,0.432,2.152,2.788,1.728,4.448c-0.909,3.558-0.328,6.009,3.184,7.992
	c4.645,2.624,8.954,5.846,13.376,8.858c1.391,0.947,2.531,0.823,3.674-0.377c1.188-1.247,2.879-2.175,3.975-0.546
	c0.558,0.829,0.025,3.219-0.838,4.051c-7.926,7.641-16.029,15.097-24.086,22.602c-2.03,1.891-3.929,3.965-6.152,5.596
	c-3.33,2.445-7.074,4.342-10.313,6.89c-4.78,3.76-9.381,7.768-13.845,11.9c-2.799,2.591-3.166,6.189-2.674,9.798
	c0.4,2.928,2.884,4.45,5.481,3.026c5.328-2.921,10.463-6.196,15.666-9.345c0.387-0.234,0.652-0.865,1.019-0.907
	c3.237-0.368,3.293-2.863,3.622-5.219c1.111-7.952,6.188-12.867,12.634-16.914c9.544-5.992,19.05-12.056,28.352-18.412
	c2.574-1.759,4.793-4.401,6.423-7.094c2.577-4.259,1.744-9.337-2.284-12.175c-12.759-8.991-25.667-17.782-38.734-26.317
	c-2.458-1.606-5.883-2.155-8.922-2.381c-19.144-1.425-37.977,0.901-56.55,5.441c-6.183,1.511-12.175,3.671-17.373,7.605
	c-5.247,3.971-6.069,10.349-2.111,15.647c4.696,6.287,9.682,12.429,13.684,19.145c6.102,10.238,8.356,21.444,5.779,33.335
	c-0.095,0.436-0.227,0.864-0.365,1.383c-0.562-0.072-2.726,31.893-3.172,31.857c-4.051-0.331-1.91-32.987-1.34-36.494
	c0.923-5.673,0.571-11.207-0.936-16.686c-2.634-9.575-8.228-17.482-14.357-25.068c-1.047-1.296-2.123-2.569-3.208-3.835
	c-5.647-6.591-5.125-17.541,3-23.494c4.931-3.613,10.462-5.849,16.281-7.4c13.325-3.551,26.835-6.247,40.643-6.662
	c8.192-0.246,16.526-0.395,24.573,0.852c5.062,0.784,10.068,3.69,14.475,6.592c10.575,6.965,20.805,14.458,31.125,21.806
	c3.032,2.159,4.972,5.159,5.876,8.805c0.169,0.681,0.481,1.326,0.726,1.988C205.224,81.947,205.224,82.503,205.224,83.059z
	 M158.104,76.413c-1.541,9.749-2.99,18.912-4.439,28.075c0.26,0.178,0.521,0.356,0.781,0.533c6.38-6.014,12.76-12.027,19.385-18.272
	C168.424,83.196,163.529,79.979,158.104,76.413z"/>
<g>
	<path id="item7" fill="#00C3D2" d="M129.831,137.457c-1.233,2.106-3.075,3.96-3.305,5.994c-0.243,2.164,1.044,4.5,1.018,7.181
		c-0.801-0.921-1.585-1.857-2.409-2.757c-0.797-0.866-1.636-1.694-2.944-3.043c-0.683,2.747-1.255,5.054-2.119,8.519
		c-1.186-3.389-1.995-5.691-3.178-9.067c-2.019,2.045-3.765,3.814-5.512,5.582c-0.406-0.486-0.812-0.97-1.218-1.455
		c1.434-1.865,2.87-3.729,4.546-5.907c-1.985-0.4-3.689-0.743-5.39-1.085c6.544-1.916,6.056-6.411,3.974-11.564
		c0.385-0.034,0.77-0.069,1.154-0.104c1.17,2.31,2.338,4.623,3.634,7.184c3.042-2.263,5.436-4.046,8.672-6.454
		c-1.058,2.981-1.744,4.909-2.528,7.124C126.379,137.549,128.157,137.501,129.831,137.457z"/>
	<path id="item6" fill="#00C3D2" d="M167.769,141.146c-0.668,3.315-1.212,6.019-1.814,9.01c-6.014-2.323-11.79-4.553-17.566-6.783
		c0.056-0.209,0.111-0.416,0.168-0.625C154.764,142.23,160.971,141.713,167.769,141.146z"/>
	<path id="item5" fill="#00C3D2" d="M87.837,129.137c-6.421-0.706-12.843-1.413-19.389-2.132c0.135-1.822,0.259-3.497,0.425-5.71
		c6.63,2.381,12.928,4.647,19.226,6.911C88.011,128.517,87.924,128.827,87.837,129.137z"/>
	<path id="item4" fill="#00C3D2" d="M167.03,131.941c-5.145,1.291-10.118,2.539-15.094,3.788c-0.114-0.238-0.228-0.476-0.345-0.715
		c4.438-2.601,8.877-5.201,13.62-7.98C165.868,128.802,166.434,130.331,167.03,131.941z"/>
	<path id="item3" fill="#00C3D2" d="M83.006,112.911c3.045,3.536,5.87,6.814,8.695,10.094c-0.16,0.199-0.321,0.399-0.482,0.601
		c-3.609-2.249-7.22-4.496-11.439-7.126C80.925,115.215,81.858,114.18,83.006,112.911z"/>
	<path id="item2" fill="#00C3D2" d="M150.233,151.586c3.252,2.651,6.506,5.302,10.059,8.198c-0.925,0.931-1.773,1.783-2.827,2.843
		c-2.791-3.684-5.388-7.113-7.984-10.541C149.732,151.92,149.982,151.753,150.233,151.586z"/>
	<path id="item1" fill="#00C3D2" d="M84.389,134.839c-2.492,1.191-4.986,2.383-7.79,3.723c-0.505-1.101-0.962-2.101-1.649-3.6
		c3.406-0.364,6.363-0.68,9.32-0.995C84.31,134.257,84.35,134.547,84.389,134.839z"/>
</g>
</svg>
